<svg width="18" height="18" viewBox="0 0 18 18" fill="none" xmlns="http://www.w3.org/2000/svg">
<path d="M12.75 8.85334C12.75 8.59413 12.75 8.46452 12.789 8.34898C12.9024 8.01333 13.2013 7.88307 13.5008 7.74666C13.8375 7.59331 14.0058 7.51664 14.1726 7.50315C14.362 7.48784 14.5517 7.52863 14.7135 7.61946C14.928 7.73988 15.0777 7.9687 15.2309 8.15476C15.9384 9.01414 16.2922 9.44382 16.4217 9.91767C16.5261 10.3001 16.5261 10.6999 16.4217 11.0823C16.2328 11.7735 15.6364 12.3528 15.1948 12.889C14.969 13.1634 14.8561 13.3005 14.7135 13.3805C14.5517 13.4714 14.362 13.5122 14.1726 13.4969C14.0058 13.4834 13.8375 13.4067 13.5008 13.2533C13.2013 13.1169 12.9024 12.9867 12.789 12.651C12.75 12.5355 12.75 12.4059 12.75 12.1467V8.85334Z" stroke="black" stroke-width="1.5"/>
<path d="M5.25 8.85346C5.25 8.52703 5.24083 8.23365 4.97693 8.00415C4.88095 7.92067 4.75369 7.86271 4.49918 7.74679C4.16251 7.59344 3.99417 7.51676 3.82737 7.50327C3.32694 7.4628 3.05769 7.80435 2.76909 8.15488C2.06156 9.01426 1.7078 9.44395 1.57835 9.91779C1.47388 10.3002 1.47388 10.7001 1.57835 11.0825C1.76715 11.7736 2.36364 12.3529 2.80516 12.8892C3.08347 13.2272 3.34933 13.5356 3.82737 13.497C3.99417 13.4835 4.16251 13.4068 4.49918 13.2535C4.75369 13.1375 4.88095 13.0796 4.97693 12.9961C5.24083 12.7666 5.25 12.4732 5.25 12.1468V8.85346Z" stroke="black" stroke-width="1.5"/>
<path d="M15 7.875V6.75C15 3.85051 12.3137 1.5 9 1.5C5.68629 1.5 3 3.85051 3 6.75V7.875" stroke="black" stroke-width="1.5" stroke-linecap="round" stroke-linejoin="round"/>
<path d="M15 13.125C15 16.5 12 16.5 9 16.5" stroke="black" stroke-width="1.5" stroke-linecap="round" stroke-linejoin="round"/>
</svg>
